<svg xmlns="http://www.w3.org/2000/svg" width="512" height="512" viewBox="82 72 348 368" role="img" aria-label="heat pump simulation thumbnail">
  <!-- Transparent background -->

  <defs>
    <!-- Glass highlight gradient -->
    <linearGradient id="glassHi" x1="0" y1="0" x2="0" y2="1">
      <stop offset="0" stop-color="#FFFFFF" stop-opacity="0.55"/>
      <stop offset="0.45" stop-color="#FFFFFF" stop-opacity="0.18"/>
      <stop offset="1" stop-color="#FFFFFF" stop-opacity="0"/>
    </linearGradient>

    <!-- Inner shadow (gives edge definition without a border) -->
    <filter id="innerShadow" x="-20%" y="-20%" width="140%" height="140%">
      <feGaussianBlur in="SourceAlpha" stdDeviation="4" result="blur"/>
      <feOffset in="blur" dx="0" dy="2" result="off"/>
      <feComposite in="off" in2="SourceAlpha" operator="arithmetic" k2="-1" k3="1" result="is"/>
      <feColorMatrix in="is" type="matrix"
        values="0 0 0 0 0
                0 0 0 0 0
                0 0 0 0 0
                0 0 0 0.45 0" />
      <feComposite in="SourceGraphic" in2="is" operator="over"/>
    </filter>

    <!-- Hexagon loop gradient (cold -> warm -> hot) -->
    <linearGradient id="loopGrad" x1="300" y1="240" x2="160" y2="360" gradientUnits="userSpaceOnUse">
      <stop offset="0.00" stop-color="#2563EB"/>
      <stop offset="0.30" stop-color="#38BDF8"/>
      <stop offset="0.55" stop-color="#FACC15"/>
      <stop offset="0.80" stop-color="#F97316"/>
      <stop offset="1.00" stop-color="#DC2626"/>
    </linearGradient>

  <!-- Outer soft shadow for the filled glass tile (optional but typical app-icon depth) -->
    <filter id="softShadow" x="-25%" y="-25%" width="150%" height="150%">
      <feDropShadow dx="0" dy="8" stdDeviation="10" flood-color="#0B1220" flood-opacity="0.18"/>
    </filter>

    <style>
      .ink { fill:#0B1220; }
      .ink2 { fill:#0B1220; opacity:0.88; }
      .mono { font-family: ui-monospace, SFMono-Regular, Menlo, Monaco, Consolas, "Liberation Mono","Courier New", monospace; }
      .sans { font-family: ui-sans-serif, system-ui, -apple-system, Segoe UI, Roboto, Arial; }
    </style>
  </defs>

  <!-- Outer badge -->

  <!-- Outer glass tile (no border) -->
  <g filter="url(#softShadow)">
    <path id="tile" d="M124 88h264a36 36 0 0 1 36 36v264a36 36 0 0 1-36 36H124a36 36 0 0 1-36-36V124a36 36 0 0 1 36-36z"
          fill="#FFFFFF" fill-opacity="0.1"/>
    <!-- inner shadow for edge definition -->
    <use href="#tile" filter="url(#innerShadow)"/>
    <!-- glossy highlight layer -->
    <use href="#tile" fill="url(#glassHi)" opacity="0.9"/>
  </g>


  <!-- Title -->
    <text x="256" y="132" text-anchor="middle" class="sans ink"
        font-size="42" font-weight="800" opacity="0.8">
    Heat Pump Sim
    </text>

  <!-- Inner frame -->
  <rect x="108" y="170" width="296" height="244" rx="22" ry="22"
        fill="none" stroke="#F59E0B" stroke-opacity="0.55" stroke-width="2"/>

  <!-- Icon boxes -->
  <g transform="translate(342,192)">
    <!-- shape -->
    <g>
      <rect width="44" height="44" rx="12" fill="#0B1220" opacity="0.02"/>
      <rect width="44" height="44" rx="12" fill="none" stroke="#F59E0B" stroke-opacity="0.35" stroke-width="2" stroke-dasharray="4 4"/>
      <path d="M22 10 L33 18 L29 32 L15 32 L11 18 Z"
            fill="none" stroke="#0B1220" stroke-opacity="0.75" stroke-width="3"/>
    </g>

    <!-- diameter/thickness (fixed alignment: clean 2-way arrow) -->
    <g transform="translate(0,52)">
      <rect width="44" height="44" rx="12" fill="#0B1220" opacity="0.02"/>
      <rect width="44" height="44" rx="12" fill="none" stroke="#F59E0B" stroke-opacity="0.35" stroke-width="2" stroke-dasharray="4 4"/>
      <!-- outer/inner dot -->
      <circle cx="16" cy="22" r="8" fill="#0B1220" opacity="0.55"/>
      <circle cx="16" cy="22" r="3" fill="#0B1220"/>
      <!-- perfectly aligned two-way arrow (horizontal) -->
      <path d="M26 22 H38" stroke="#0B1220" stroke-opacity="0.75" stroke-width="3" stroke-linecap="round"/>
      <path d="M26 22 L30 18" stroke="#0B1220" stroke-opacity="0.75" stroke-width="3" stroke-linecap="round"/>
      <path d="M26 22 L30 26" stroke="#0B1220" stroke-opacity="0.75" stroke-width="3" stroke-linecap="round"/>
      <path d="M38 22 L34 18" stroke="#0B1220" stroke-opacity="0.75" stroke-width="3" stroke-linecap="round"/>
      <path d="M38 22 L34 26" stroke="#0B1220" stroke-opacity="0.75" stroke-width="3" stroke-linecap="round"/>
    </g>

    <!-- material -->
    <g transform="translate(0,104)">
      <rect width="44" height="44" rx="12" fill="#0B1220" opacity="0.02"/>
      <rect width="44" height="44" rx="12" fill="none" stroke="#F59E0B" stroke-opacity="0.35" stroke-width="2" stroke-dasharray="4 4"/>
      <text x="22" y="28" text-anchor="middle" class="mono ink"
            font-size="16" font-weight="800">
        H<tspan baseline-shift="sub" font-size="11">2</tspan>O
      </text>
    </g>

    <!-- thermometer -->
    <g transform="translate(0,156)">
      <rect width="44" height="44" rx="12" fill="#0B1220" opacity="0.02"/>
      <rect width="44" height="44" rx="12" fill="none" stroke="#F59E0B" stroke-opacity="0.35" stroke-width="2" stroke-dasharray="4 4"/>
      <rect x="20" y="10" width="8" height="20" rx="4" fill="none" stroke="#0B1220" stroke-width="2"/>
      <circle cx="24" cy="32" r="8" fill="none" stroke="#0B1220" stroke-width="2"/>
      <circle cx="24" cy="32" r="6" fill="#F97316"/>
      <path d="M24 14 V28" stroke="#F97316" stroke-width="3"/>
    </g>
  </g>

  <!-- Hexagon loop -->
  <g transform="translate(232,318) rotate(60)">
    <path d="M0 -64 L56 -32 L56 32 L0 64 L-56 32 L-56 -32 Z"
          fill="none" stroke="#0B1220" stroke-opacity="0.07" stroke-width="18"/>
    <path d="M0 -64 L56 -32 L56 32 L0 64 L-56 32 L-56 -32 Z"
          fill="none" stroke="url(#loopGrad)" stroke-width="18" opacity="0.7"/>
  </g>

  <!-- House + ground + tree -->
  <g transform="translate(232,224)">
    <!-- house -->
    <path d="M0 -26 L-26 -6 L26 -6 Z" fill="#0B1220" opacity="0.85"/>
    <rect x="-18" y="-6" width="36" height="28" fill="#0B1220" opacity="0.72"/>
    <rect x="-4" y="6" width="8" height="16" fill="#0B1220"/>
    <rect x="12" y="-22" width="6" height="12" fill="#0B1220"/>

    <!-- window (added) -->
    <rect x="-14" y="0" width="8" height="8" fill="#0B1220" opacity="0.9"/>
    <path d="M-10 0 V8 M-14 4 H-6" stroke="#FDE047" stroke-opacity="0.35" stroke-width="1"/>

    <!-- ground line (slightly wider) -->
    <path d="M-64 22 H64" stroke="#0B1220" stroke-width="3" opacity="0.6"/>

    <!-- tree -->
    <rect x="36" y="4" width="6" height="18" fill="#0B1220" opacity="0.8"/>
    <circle cx="39" cy="-2" r="10" fill="#0B1220" opacity="0.65"/>
  </g>

</svg>